<?xml version="1.0" standalone="no"?>
<!DOCTYPE svg PUBLIC "-//W3C//DTD SVG 20010904//EN"
 "http://www.w3.org/TR/2001/REC-SVG-20010904/DTD/svg10.dtd">
<svg version="1.0" xmlns="http://www.w3.org/2000/svg"
 width="1536.000000pt" height="1536.000000pt" viewBox="0 0 1536.000000 1536.000000"
 preserveAspectRatio="xMidYMid meet">

<g transform="translate(0.000000,1536.000000) scale(0.100000,-0.100000)"
fill="#000000" stroke="none">
<path d="M11640 10413 c-548 -40 -1449 -295 -1975 -560 -287 -145 -460 -266
-646 -452 -226 -227 -353 -465 -420 -786 -27 -130 -37 -479 -19 -664 53 -559
298 -1401 559 -1918 178 -353 399 -632 637 -802 103 -73 293 -168 410 -204
421 -132 968 -102 1674 89 222 60 664 209 829 279 430 181 742 385 953 620
191 214 302 436 365 734 26 120 27 140 27 401 1 310 -8 396 -74 720 -92 457
-277 1023 -456 1399 -222 466 -523 810 -853 976 -272 136 -632 196 -1011 168z
m827 -1375 c-51 -79 -126 -194 -166 -255 l-73 -113 -185 0 c-144 0 -184 3
-180 13 2 6 44 121 92 255 l87 242 259 0 259 0 -93 -142z m-2297 -639 c0 -446
4 -718 9 -714 6 3 128 181 272 395 l263 390 279 0 c220 0 277 -3 271 -12 -4
-7 -138 -197 -298 -423 -159 -225 -290 -417 -290 -425 0 -8 150 -223 332 -477
l332 -463 -295 0 -295 0 -282 425 c-156 233 -286 425 -290 425 -5 0 -8 -191
-8 -425 l0 -425 -240 0 -240 0 0 1225 0 1225 240 0 240 0 0 -721z m2183 87
c217 -65 376 -182 504 -371 53 -78 75 -123 106 -217 43 -129 63 -279 52 -394
l-7 -74 -684 0 -684 0 6 -27 c37 -157 112 -255 242 -316 50 -23 82 -31 151
-35 154 -8 282 38 370 134 28 31 51 60 51 65 0 5 108 9 260 9 l259 0 -33 -78
c-134 -318 -412 -521 -768 -561 -300 -34 -578 70 -785 293 -111 120 -186 267
-224 437 -28 125 -23 361 10 484 82 309 314 552 616 645 107 33 157 39 315 36
132 -3 168 -8 243 -30z"/>
<path d="M12012 8099 c-88 -11 -182 -57 -241 -119 -50 -52 -111 -161 -111
-199 l0 -21 429 0 c239 0 432 4 435 9 10 15 -63 148 -110 200 -53 59 -160 117
-232 126 -90 11 -107 11 -170 4z"/>
<path d="M4818 9671 c-168 -54 -237 -159 -246 -373 l-4 -118 -109 0 -109 0 0
-145 0 -145 110 0 110 0 0 -485 0 -485 170 0 170 0 0 485 0 485 160 0 160 0 0
145 0 145 -166 0 -167 0 6 79 c6 91 16 115 60 141 27 17 51 20 150 20 l117 0
0 135 0 135 -177 -1 c-143 0 -189 -4 -235 -18z"/>
<path d="M3255 9214 c-38 -8 -106 -32 -150 -54 -136 -66 -227 -157 -296 -295
-54 -110 -72 -202 -66 -340 9 -193 67 -327 196 -455 130 -129 272 -184 471
-184 99 0 126 4 193 27 43 15 104 44 135 65 31 20 62 40 69 45 8 5 17 -10 28
-48 l16 -55 134 0 135 0 0 640 0 640 -128 0 -129 0 -18 -60 c-10 -33 -21 -60
-25 -60 -4 0 -15 9 -24 19 -29 32 -177 101 -251 116 -87 18 -199 18 -290 -1z
m327 -341 c68 -30 140 -102 171 -171 17 -37 21 -67 22 -142 0 -88 -3 -101 -33
-162 -37 -76 -82 -120 -162 -157 -47 -22 -68 -26 -150 -26 -113 1 -168 23
-240 95 -74 74 -95 127 -95 245 0 87 3 107 27 157 79 169 282 241 460 161z"/>
<path d="M6868 9220 c-245 -41 -450 -215 -524 -443 -35 -107 -43 -258 -20
-367 83 -395 496 -618 907 -490 156 48 307 176 378 321 22 46 48 113 58 149
22 86 21 253 -1 340 -53 200 -198 366 -391 447 -109 46 -281 64 -407 43z m254
-336 c60 -19 142 -92 172 -153 92 -181 27 -405 -142 -488 -50 -25 -68 -28
-152 -28 -82 0 -103 4 -151 26 -114 54 -179 155 -187 292 -15 265 206 434 460
351z"/>
<path d="M5430 8560 l0 -640 175 0 175 0 0 376 c0 240 4 391 11 419 14 57 67
118 121 140 27 10 85 18 165 22 l123 6 0 159 0 158 -102 0 c-160 0 -253 -32
-340 -118 l-47 -45 -11 29 c-6 16 -20 53 -31 82 l-21 52 -109 0 -109 0 0 -640z"/>
<path d="M2537 7599 c-91 -21 -181 -90 -222 -169 -24 -47 -45 -155 -45 -237
l0 -73 -105 0 -105 0 0 -135 0 -135 105 0 105 0 0 -465 0 -465 165 0 165 0 0
465 0 465 155 0 155 0 0 135 0 135 -161 0 -162 0 6 79 c9 132 33 151 197 151
l110 0 0 130 0 130 -162 -1 c-90 -1 -180 -5 -201 -10z"/>
<path d="M5290 7450 l0 -150 165 0 165 0 0 150 0 150 -165 0 -165 0 0 -150z"/>
<path d="M4530 7154 c-141 -30 -258 -115 -309 -224 -22 -47 -26 -69 -26 -150
0 -78 4 -104 23 -145 57 -124 155 -177 424 -229 132 -26 158 -35 196 -69 29
-27 30 -84 0 -122 -30 -38 -76 -55 -150 -55 -106 1 -179 48 -194 126 l-6 34
-161 0 -160 0 6 -52 c18 -175 148 -315 338 -364 78 -21 240 -23 324 -5 202 44
337 181 352 357 14 175 -60 295 -221 357 -28 10 -123 34 -212 52 -212 43 -244
61 -244 132 0 36 23 69 63 90 41 21 149 21 199 0 40 -17 78 -68 78 -104 0 -23
1 -23 161 -23 l160 0 -7 48 c-10 71 -40 144 -80 196 -106 135 -336 198 -554
150z"/>
<path d="M6226 7154 c-187 -37 -359 -170 -442 -341 -152 -314 -25 -704 277
-852 115 -56 192 -74 319 -74 195 1 334 57 466 188 129 128 184 262 185 451 1
215 -86 393 -249 514 -151 112 -356 154 -556 114z m291 -324 c61 -26 125 -91
156 -158 18 -38 22 -66 22 -142 0 -82 -4 -103 -26 -151 -55 -116 -157 -179
-293 -179 -104 0 -159 22 -227 89 -67 68 -93 132 -93 236 0 85 14 137 54 197
38 57 89 97 155 121 68 24 181 18 252 -13z"/>
<path d="M7681 7145 c-70 -20 -161 -69 -215 -116 l-43 -38 -31 72 -30 72 -114
0 -113 0 -3 -607 -2 -608 164 0 164 0 4 358 c4 296 8 366 21 408 25 77 67 128
131 159 49 24 65 27 134 24 67 -3 84 -8 114 -31 79 -60 88 -116 88 -559 l0
-359 165 0 165 0 0 393 c-1 439 -7 507 -61 616 -42 85 -112 154 -197 194 -61
29 -77 32 -177 34 -74 2 -127 -2 -164 -12z"/>
<path d="M2942 6728 c4 -392 5 -416 26 -478 55 -166 172 -280 346 -336 69 -23
99 -26 201 -26 102 0 132 3 201 26 180 58 297 177 351 357 14 45 17 124 20
462 l4 407 -165 0 -165 0 -3 -378 -3 -378 -30 -59 c-44 -86 -94 -119 -190
-123 -123 -7 -191 31 -236 130 -24 52 -24 58 -27 431 l-3 377 -165 0 -165 0 3
-412z"/>
<path d="M5297 7133 c-4 -3 -7 -278 -7 -610 l0 -603 165 0 165 0 0 610 0 610
-158 0 c-87 0 -162 -3 -165 -7z"/>
</g>
</svg>
