<?xml version="1.0" standalone="no"?>
<!DOCTYPE svg PUBLIC "-//W3C//DTD SVG 20010904//EN"
 "http://www.w3.org/TR/2001/REC-SVG-20010904/DTD/svg10.dtd">
<svg version="1.0" xmlns="http://www.w3.org/2000/svg"
 width="512.000000pt" height="512.000000pt" viewBox="0 0 512.000000 512.000000"
 preserveAspectRatio="xMidYMid meet">

<g transform="translate(0.000000,512.000000) scale(0.100000,-0.100000)"
fill="#000000" stroke="none">
<path d="M1 3963 c1 -637 5 -1137 9 -1111 32 189 115 341 262 484 111 109
1715 1561 1777 1610 95 75 251 142 379 164 26 4 -510 8 -1190 9 l-1238 1 1
-1157z"/>
<path d="M2698 5109 c79 -13 197 -55 271 -97 85 -47 133 -87 386 -317 116
-105 480 -435 810 -734 678 -614 751 -684 804 -761 71 -103 120 -223 141 -347
4 -26 8 473 9 1110 l1 1157 -1237 -1 c-758 -1 -1217 -5 -1185 -10z"/>
<path d="M2455 4577 c-100 -33 -10 45 -1581 -1382 -202 -184 -317 -295 -328
-318 -9 -20 -21 -60 -26 -90 -7 -34 -9 -416 -8 -1043 l3 -989 26 -56 c37 -79
90 -133 167 -171 l67 -33 1775 0 1775 0 56 26 c69 33 129 91 166 161 l28 53 3
1005 c3 1112 6 1048 -62 1162 -25 42 -219 223 -907 848 -482 437 -894 804
-915 814 -50 24 -183 31 -239 13z"/>
<path d="M5110 773 c0 -92 -78 -303 -151 -410 -117 -172 -310 -302 -509 -344
l-85 -18 378 0 377 -1 0 400 c0 220 -2 400 -5 400 -3 0 -5 -12 -5 -27z"/>
<path d="M1 383 l-1 -383 383 1 c265 1 365 4 327 10 -341 57 -624 337 -695
689 -12 58 -13 26 -14 -317z"/>
</g>
</svg>
